<svg width="44" height="44" viewBox="0 0 44 44" fill="none" xmlns="http://www.w3.org/2000/svg">
<path d="M19.8212 15.4567C19.2923 15.6007 18.7891 15.8078 18.3205 16.0697C18.1996 15.9687 18.1029 15.835 18.0452 15.6754L15.3234 8.1482C15.15 7.66846 15.3957 7.13807 15.8723 6.96352C15.976 6.92548 16.082 6.90765 16.1861 6.90765C16.5612 6.90765 16.9134 7.14068 17.049 7.51586L19.7708 15.0431C19.8203 15.18 19.8356 15.3211 19.8212 15.4567Z" fill="#FF7BD1"/>
<path d="M15.0428 1.96784C14.8693 1.48816 14.3424 1.24084 13.8659 1.41543C13.3893 1.59002 13.1436 2.1204 13.3171 2.60008L14.4126 5.62972C14.586 6.10939 15.1129 6.35672 15.5894 6.18213C16.066 6.00754 16.3117 5.47716 16.1382 4.99748L15.0428 1.96784Z" fill="#FF7BD1"/>
<path d="M15.0722 20.2646C14.9366 20.7811 14.8602 21.3217 14.8507 21.8788C14.7027 21.934 14.5388 21.9516 14.3723 21.9221L6.53535 20.5311C6.03608 20.4424 5.70265 19.9631 5.79054 19.4603C5.86915 19.0121 6.25656 18.6965 6.69386 18.6965C6.74676 18.6965 6.80032 18.701 6.85431 18.7106L14.6913 20.1016C14.8338 20.1268 14.9627 20.184 15.0722 20.2646Z" fill="#FF7BD1"/>
<path d="M1.07781 17.6853C0.578403 17.5966 0.102163 17.9323 0.0141032 18.435C-0.0739565 18.9377 0.259511 19.4171 0.758922 19.5057L3.91321 20.0656C4.41262 20.1542 4.88886 19.8185 4.97692 19.3158C5.06498 18.8131 4.73151 18.3338 4.2321 18.2451L1.07781 17.6853Z" fill="#FF7BD1"/>
<path d="M18.1125 27.8094C18.0859 27.9655 18.0192 28.1166 17.9108 28.2468L12.7955 34.383C12.4696 34.774 11.8904 34.8251 11.502 34.4969C11.2856 34.3141 11.174 34.0521 11.174 33.7885C11.174 33.5787 11.2443 33.3681 11.3888 33.1948L16.5041 27.0586C16.5976 26.9464 16.7118 26.8623 16.8364 26.8071C17.2191 27.1903 17.6475 27.5273 18.1125 27.8094Z" fill="#FF7BD1"/>
<path d="M7.61914 37.7174C7.29317 38.1084 7.34384 38.6914 7.73231 39.0195C8.12079 39.3477 8.69996 39.2967 9.02592 38.9056L11.0848 36.4358C11.4107 36.0448 11.3601 35.4618 10.9716 35.1337C10.5831 34.8056 10.004 34.8566 9.67796 35.2476L7.61914 37.7174Z" fill="#FF7BD1"/>
<path d="M27.2941 37.0367C27.1904 37.0747 27.0844 37.0925 26.9803 37.0925C26.6052 37.0925 26.253 36.8595 26.1174 36.4843L23.3956 28.9571C23.3461 28.8202 23.3308 28.6791 23.3453 28.5435C23.8741 28.3996 24.3773 28.1924 24.8459 27.9305C24.9668 28.0316 25.0636 28.1652 25.1212 28.3248L27.843 35.852C28.0164 36.3317 27.7707 36.8621 27.2941 37.0367Z" fill="#FF7BD1"/>
<path d="M28.1236 42.0323C28.297 42.5119 28.8239 42.7593 29.3004 42.5847C29.777 42.4101 30.0227 41.8797 29.8492 41.4L28.7538 38.3704C28.5803 37.8907 28.0534 37.6434 27.5769 37.818C27.1003 37.9926 26.8546 38.5229 27.0281 39.0026L28.1236 42.0323Z" fill="#FF7BD1"/>
<path d="M37.3745 24.5399C37.2961 24.9881 36.9084 25.3037 36.4714 25.3037C36.4184 25.3037 36.3649 25.2992 36.3109 25.2896L28.4739 23.8986C28.3314 23.8734 28.2025 23.8163 28.093 23.7356C28.2286 23.2191 28.305 22.6785 28.3145 22.1214C28.4625 22.0662 28.6264 22.0486 28.7929 22.0781L36.6296 23.4691C37.1291 23.5578 37.4626 24.0371 37.3745 24.5399Z" fill="#FF7BD1"/>
<path d="M42.0875 26.3148C42.5869 26.4034 43.0631 26.0678 43.1512 25.5651C43.2393 25.0624 42.9058 24.583 42.4064 24.4943L39.2521 23.9345C38.7527 23.8459 38.2764 24.1815 38.1884 24.6842C38.1003 25.1869 38.4338 25.6663 38.9332 25.7549L42.0875 26.3148Z" fill="#FF7BD1"/>
<path d="M31.9922 10.2118C31.9922 10.4215 31.9218 10.6322 31.7774 10.8054L26.6622 16.9416C26.5687 17.0538 26.4545 17.1379 26.3299 17.1931C25.9472 16.8099 25.5187 16.473 25.0538 16.1908C25.0804 16.0347 25.1471 15.8837 25.2555 15.7535L30.3707 9.61727C30.6966 9.22622 31.2757 9.17514 31.6642 9.50337C31.8806 9.68618 31.9922 9.94811 31.9922 10.2118Z" fill="#FF7BD1"/>
<path d="M35.5481 6.28244C35.8741 5.89141 35.8234 5.30842 35.4349 4.9803C35.0465 4.65218 34.4673 4.70319 34.1413 5.09422L32.0825 7.56401C31.7565 7.95504 31.8072 8.53803 32.1957 8.86615C32.5842 9.19427 33.1633 9.14326 33.4893 8.75223L35.5481 6.28244Z" fill="#FF7BD1"/>
<path d="M17.7046 16.4593C17.2619 16.7736 16.8585 17.1407 16.5037 17.5511C16.3554 17.4977 16.2184 17.4053 16.1098 17.2749L14.6291 15.4987C14.303 15.1076 14.3537 14.5246 14.7422 14.1964C14.9143 14.0512 15.1236 13.9803 15.332 13.9803C15.5939 13.9803 15.8541 14.0925 16.0358 14.3103L17.5165 16.0867C17.6098 16.1986 17.6722 16.3265 17.7046 16.4593Z" fill="#13B6FE"/>
<path d="M8.6309 5.4276C8.30493 5.03656 7.72577 4.98556 7.33729 5.31368C6.94882 5.64179 6.89815 6.22478 7.22412 6.61582L12.9569 13.493C13.2829 13.884 13.8621 13.935 14.2505 13.6069C14.639 13.2788 14.6897 12.6958 14.3637 12.3048L8.6309 5.4276Z" fill="#13B6FE"/>
<path d="M15.2143 24.2051C15.0945 24.3073 14.947 24.3797 14.7811 24.4093L12.5126 24.8118C12.0131 24.9005 11.5369 24.5649 11.4488 24.0621C11.4393 24.0078 11.4348 23.9536 11.4348 23.9004C11.4348 23.4602 11.7481 23.0705 12.1936 22.9913L14.4622 22.5888C14.6051 22.5633 14.7463 22.5727 14.877 22.6111C14.9258 23.1644 15.0409 23.6985 15.2143 24.2051Z" fill="#13B6FE"/>
<path d="M9.63196 23.4457L0.848766 25.0046C0.349354 25.0933 0.0158872 25.5727 0.103947 26.0754C0.192007 26.5781 0.668246 26.9137 1.16766 26.8251L9.95084 25.2662C10.4503 25.1775 10.7838 24.6981 10.6957 24.1954C10.6076 23.6927 10.1314 23.3571 9.63196 23.4457Z" fill="#13B6FE"/>
<path d="M20.2539 29.1343L19.4661 31.3133C19.2927 31.793 18.7658 32.0404 18.2892 31.8658C17.9163 31.7291 17.6848 31.3746 17.6848 30.9972C17.6848 30.8922 17.7027 30.7855 17.7405 30.6811L18.5283 28.5022C18.5777 28.3652 18.6559 28.2472 18.7537 28.1526C19.239 28.3792 19.7555 28.5491 20.2949 28.6541C20.3228 28.8098 20.3116 28.975 20.2539 29.1343Z" fill="#13B6FE"/>
<path d="M16.8508 33.141L13.8005 41.5771C13.627 42.0568 13.8727 42.5871 14.3493 42.7617C14.8258 42.9363 15.3527 42.689 15.5262 42.2093L18.5765 33.7732C18.75 33.2936 18.5043 32.7632 18.0277 32.5886C17.5512 32.414 17.0243 32.6613 16.8508 33.141Z" fill="#13B6FE"/>
<path d="M28.4235 29.8038C28.2514 29.949 28.0422 30.0199 27.8338 30.0199C27.5718 30.0199 27.3116 29.9077 27.13 29.6899L25.6492 27.9135C25.5559 27.8016 25.4935 27.6738 25.4611 27.541C25.9038 27.2266 26.3072 26.8595 26.662 26.4491C26.8104 26.5026 26.9473 26.595 27.0559 26.7254L28.5367 28.5015C28.8628 28.8926 28.812 29.4756 28.4235 29.8038Z" fill="#13B6FE"/>
<path d="M30.209 30.507C29.883 30.1159 29.3039 30.0649 28.9154 30.393C28.5269 30.7212 28.4763 31.3041 28.8022 31.6952L34.5351 38.5724C34.861 38.9634 35.4402 39.0144 35.8287 38.6863C36.2171 38.3582 36.2678 37.7752 35.9418 37.3841L30.209 30.507Z" fill="#13B6FE"/>
<path d="M31.7309 20.0999C31.7309 20.54 31.4176 20.9298 30.9721 21.0089L28.7035 21.4115C28.5606 21.4369 28.4193 21.4276 28.2887 21.3891C28.2399 20.8359 28.1248 20.3018 27.9514 19.7951C28.0712 19.6929 28.2187 19.6205 28.3846 19.591L30.6531 19.1884C31.1526 19.0997 31.6288 19.4353 31.7169 19.9381C31.7264 19.9925 31.7309 20.0466 31.7309 20.0999Z" fill="#13B6FE"/>
<path d="M41.9982 17.1749L33.215 18.7338C32.7156 18.8224 32.3821 19.3018 32.4702 19.8045C32.5583 20.3072 33.0345 20.6429 33.5339 20.5542L42.3171 18.9953C42.8165 18.9067 43.15 18.4273 43.0619 17.9246C42.9739 17.4219 42.4976 17.0862 41.9982 17.1749Z" fill="#13B6FE"/>
<path d="M25.4804 13.003C25.4804 13.108 25.4625 13.2147 25.4247 13.3191L24.6369 15.498C24.5875 15.635 24.5093 15.753 24.4115 15.8476C23.9262 15.6211 23.4097 15.4511 22.8702 15.3461C22.8422 15.1904 22.8536 15.0252 22.9113 14.8659L23.6991 12.687C23.8725 12.2072 24.3994 11.9598 24.876 12.1344C25.2489 12.2711 25.4804 12.6254 25.4804 13.003Z" fill="#13B6FE"/>
<path d="M27.6389 1.79053L24.5886 10.2266C24.4151 10.7063 24.6608 11.2367 25.1374 11.4113C25.6139 11.5859 26.1408 11.3385 26.3142 10.8589L29.3646 2.42277C29.5381 1.94309 29.2924 1.4127 28.8158 1.23812C28.3393 1.06353 27.8124 1.31085 27.6389 1.79053Z" fill="#13B6FE"/>
<path d="M22.2429 8.6645V14.8388C22.2429 14.9851 22.2092 15.1233 22.1492 15.2461C21.9624 15.2303 21.7732 15.2222 21.5823 15.2222C21.2247 15.2222 20.8738 15.2503 20.5313 15.3044C20.452 15.1677 20.4064 15.0085 20.4064 14.8388V8.6645C20.4064 8.15411 20.8176 7.74023 21.3247 7.74023C21.5784 7.74023 21.8077 7.8437 21.974 8.01108C22.1401 8.17824 22.2429 8.40931 22.2429 8.6645Z" fill="#0A74FC"/>
<path d="M22.2429 0.92427C22.2429 0.41381 21.8318 0 21.3247 0C20.8175 0 20.4064 0.41381 20.4064 0.92427V5.99906C20.4064 6.50952 20.8175 6.92333 21.3247 6.92333C21.8318 6.92333 22.2429 6.50952 22.2429 5.99906V0.92427Z" fill="#0A74FC"/>
<path d="M16.0543 18.1287C15.7468 18.5728 15.4907 19.0556 15.2948 19.5683C15.1378 19.569 14.9785 19.5292 14.8327 19.4444L9.5208 16.3573C9.08178 16.1021 8.93126 15.5367 9.18478 15.0948C9.43831 14.6527 9.99999 14.5012 10.439 14.7564L15.7509 17.8435C15.8766 17.9165 15.9785 18.015 16.0543 18.1287Z" fill="#0A74FC"/>
<path d="M3.77994 10.8862C3.34076 10.6309 2.77919 10.7824 2.52563 11.2245C2.27208 11.6665 2.42255 12.2318 2.86172 12.487L7.22783 15.0244C7.667 15.2797 8.22857 15.1282 8.48213 14.6861C8.73569 14.2441 8.58522 13.6788 8.14604 13.4235L3.77994 10.8862Z" fill="#0A74FC"/>
<path d="M16.3475 26.2632C16.2695 26.4013 16.1553 26.5206 16.0089 26.6058L10.697 29.6927C10.2577 29.9481 9.69629 29.7966 9.44276 29.3545C9.35919 29.2088 9.31946 29.0499 9.31946 28.893C9.31946 28.5737 9.48422 28.2631 9.77878 28.092L15.0907 25.0048C15.2161 24.9318 15.3515 24.8922 15.4867 24.8831C15.7184 25.3789 16.0082 25.842 16.3475 26.2632Z" fill="#0A74FC"/>
<path d="M7.48564 29.4246L3.11954 31.962C2.68036 32.2172 2.52989 32.7825 2.78344 33.2246C3.037 33.6666 3.59857 33.8181 4.03775 33.5629L8.40385 31.0255C8.84303 30.7703 8.9935 30.205 8.73994 29.7629C8.48638 29.3208 7.92481 29.1694 7.48564 29.4246Z" fill="#0A74FC"/>
<path d="M22.7585 29.1615V35.3357C22.7585 35.8461 22.3473 36.26 21.8403 36.26C21.5865 36.26 21.3572 36.1565 21.1909 35.9892C21.0249 35.822 20.9221 35.5909 20.9221 35.3357V29.1615C20.9221 29.0152 20.9558 28.8769 21.0158 28.7541C21.2026 28.77 21.3918 28.778 21.5827 28.778C21.9403 28.778 22.2912 28.75 22.6337 28.6959C22.7129 28.8326 22.7585 28.9917 22.7585 29.1615Z" fill="#0A74FC"/>
<path d="M22.7585 38.001C22.7585 37.4905 22.3474 37.0767 21.8403 37.0767C21.3332 37.0767 20.9221 37.4905 20.9221 38.001V43.0758C20.9221 43.5862 21.3332 44 21.8403 44C22.3474 44 22.7585 43.5862 22.7585 43.0758V38.001Z" fill="#0A74FC"/>
<path d="M33.9801 28.9054C33.8099 29.2019 33.5013 29.3678 33.1839 29.3678C33.0282 29.3678 32.8703 29.3278 32.7259 29.2438L27.4137 26.1567C27.2881 26.0837 27.1859 25.9852 27.1106 25.8715C27.4181 25.4274 27.6742 24.9446 27.87 24.4319C28.027 24.4312 28.1862 24.471 28.332 24.5558L33.6441 27.6429C34.0831 27.8981 34.2336 28.4635 33.9801 28.9054Z" fill="#0A74FC"/>
<path d="M35.9371 28.9756C35.498 28.7204 34.9364 28.8718 34.6828 29.3139C34.4293 29.756 34.5798 30.3213 35.0189 30.5765L39.385 33.1139C39.8242 33.3691 40.3858 33.2176 40.6393 32.7756C40.8929 32.3335 40.7424 31.7682 40.3032 31.513L35.9371 28.9756Z" fill="#0A74FC"/>
<path d="M33.8456 15.1072C33.8456 15.4265 33.6809 15.7372 33.3863 15.9082L28.0744 18.9954C27.9489 19.0684 27.8135 19.108 27.6784 19.1171C27.4466 18.6213 27.1568 18.1583 26.8176 17.737C26.8955 17.599 27.0098 17.4796 27.1562 17.3944L32.4681 14.3075C32.9073 14.0521 33.4688 14.2036 33.7223 14.6457C33.8059 14.7914 33.8456 14.9503 33.8456 15.1072Z" fill="#0A74FC"/>
<path d="M39.1272 10.4371L34.7611 12.9745C34.3219 13.2297 34.1715 13.795 34.425 14.2371C34.6786 14.6791 35.2402 14.8306 35.6793 14.5754L40.0454 12.038C40.4846 11.7827 40.6351 11.2175 40.3815 10.7754C40.128 10.3333 39.5664 10.1819 39.1272 10.4371Z" fill="#0A74FC"/>
</svg>
