<svg width="144" height="44" viewBox="0 0 144 44" fill="none" xmlns="http://www.w3.org/2000/svg">
<path d="M19.8212 15.4567C19.2923 15.6007 18.7891 15.8078 18.3205 16.0697C18.1996 15.9687 18.1029 15.835 18.0452 15.6754L15.3234 8.1482C15.15 7.66846 15.3957 7.13807 15.8723 6.96352C15.976 6.92548 16.082 6.90765 16.1861 6.90765C16.5612 6.90765 16.9134 7.14068 17.049 7.51586L19.7708 15.0431C19.8203 15.18 19.8356 15.3211 19.8212 15.4567Z" fill="#FF7BD1"/>
<path d="M15.0428 1.96784C14.8693 1.48816 14.3424 1.24084 13.8659 1.41543C13.3893 1.59002 13.1436 2.1204 13.3171 2.60008L14.4126 5.62972C14.586 6.10939 15.1129 6.35672 15.5894 6.18213C16.066 6.00754 16.3117 5.47716 16.1382 4.99748L15.0428 1.96784Z" fill="#FF7BD1"/>
<path d="M15.0723 20.2646C14.9367 20.7811 14.8603 21.3217 14.8508 21.8788C14.7028 21.934 14.5389 21.9516 14.3724 21.9221L6.53548 20.5311C6.03621 20.4424 5.70278 19.9631 5.79067 19.4603C5.86928 19.0121 6.25669 18.6965 6.69399 18.6965C6.74689 18.6965 6.80045 18.701 6.85444 18.7106L14.6914 20.1016C14.8339 20.1268 14.9628 20.184 15.0723 20.2646Z" fill="#FF7BD1"/>
<path d="M1.07781 17.6853C0.578403 17.5966 0.102163 17.9323 0.0141032 18.435C-0.0739565 18.9377 0.259511 19.4171 0.758922 19.5057L3.91321 20.0656C4.41262 20.1542 4.88886 19.8185 4.97692 19.3158C5.06498 18.8131 4.73151 18.3338 4.2321 18.2451L1.07781 17.6853Z" fill="#FF7BD1"/>
<path d="M18.1123 27.8094C18.0857 27.9655 18.019 28.1166 17.9106 28.2468L12.7954 34.383C12.4695 34.774 11.8903 34.8251 11.5019 34.4969C11.2855 34.3141 11.1738 34.0521 11.1738 33.7885C11.1738 33.5787 11.2442 33.3681 11.3887 33.1948L16.5039 27.0586C16.5974 26.9464 16.7116 26.8623 16.8362 26.8071C17.2189 27.1903 17.6473 27.5273 18.1123 27.8094Z" fill="#FF7BD1"/>
<path d="M7.61914 37.7174C7.29317 38.1084 7.34384 38.6914 7.73231 39.0195C8.12079 39.3477 8.69996 39.2967 9.02592 38.9056L11.0848 36.4358C11.4107 36.0448 11.3601 35.4618 10.9716 35.1337C10.5831 34.8056 10.004 34.8566 9.67796 35.2476L7.61914 37.7174Z" fill="#FF7BD1"/>
<path d="M27.2941 37.0367C27.1904 37.0747 27.0844 37.0925 26.9803 37.0925C26.6052 37.0925 26.253 36.8595 26.1174 36.4843L23.3956 28.9571C23.3461 28.8202 23.3308 28.6791 23.3453 28.5435C23.8741 28.3996 24.3773 28.1924 24.8459 27.9305C24.9668 28.0316 25.0636 28.1652 25.1212 28.3248L27.843 35.852C28.0164 36.3317 27.7707 36.8621 27.2941 37.0367Z" fill="#FF7BD1"/>
<path d="M28.1236 42.0323C28.297 42.5119 28.8239 42.7593 29.3004 42.5847C29.777 42.4101 30.0227 41.8797 29.8492 41.4L28.7538 38.3704C28.5803 37.8907 28.0534 37.6434 27.5769 37.818C27.1003 37.9926 26.8546 38.5229 27.0281 39.0026L28.1236 42.0323Z" fill="#FF7BD1"/>
<path d="M37.3745 24.5399C37.2961 24.9881 36.9084 25.3037 36.4714 25.3037C36.4184 25.3037 36.3649 25.2992 36.3109 25.2896L28.4739 23.8986C28.3314 23.8734 28.2025 23.8163 28.093 23.7356C28.2286 23.2191 28.305 22.6785 28.3145 22.1214C28.4625 22.0662 28.6264 22.0486 28.7929 22.0781L36.6296 23.4691C37.1291 23.5578 37.4626 24.0371 37.3745 24.5399Z" fill="#FF7BD1"/>
<path d="M42.0875 26.3148C42.5869 26.4034 43.0631 26.0678 43.1512 25.5651C43.2393 25.0624 42.9058 24.583 42.4064 24.4943L39.2521 23.9345C38.7527 23.8459 38.2764 24.1815 38.1884 24.6842C38.1003 25.1869 38.4338 25.6663 38.9332 25.7549L42.0875 26.3148Z" fill="#FF7BD1"/>
<path d="M31.9924 10.2118C31.9924 10.4215 31.922 10.6322 31.7776 10.8054L26.6624 16.9416C26.5689 17.0538 26.4547 17.1379 26.3301 17.1931C25.9474 16.8099 25.5189 16.473 25.054 16.1908C25.0806 16.0347 25.1473 15.8837 25.2557 15.7535L30.3709 9.61727C30.6968 9.22622 31.2759 9.17514 31.6644 9.50337C31.8808 9.68618 31.9924 9.94811 31.9924 10.2118Z" fill="#FF7BD1"/>
<path d="M35.5481 6.28244C35.8741 5.89141 35.8234 5.30842 35.4349 4.9803C35.0465 4.65218 34.4673 4.70319 34.1413 5.09422L32.0825 7.56401C31.7565 7.95504 31.8072 8.53803 32.1957 8.86615C32.5842 9.19427 33.1633 9.14326 33.4893 8.75223L35.5481 6.28244Z" fill="#FF7BD1"/>
<path d="M17.7047 16.4593C17.262 16.7736 16.8586 17.1407 16.5038 17.5511C16.3555 17.4977 16.2185 17.4053 16.1099 17.2749L14.6292 15.4987C14.3031 15.1076 14.3538 14.5246 14.7423 14.1964C14.9144 14.0512 15.1237 13.9803 15.3321 13.9803C15.594 13.9803 15.8542 14.0925 16.0359 14.3103L17.5166 16.0867C17.6099 16.1986 17.6723 16.3265 17.7047 16.4593Z" fill="#13B6FE"/>
<path d="M8.6309 5.4276C8.30493 5.03656 7.72577 4.98556 7.33729 5.31368C6.94882 5.64179 6.89815 6.22478 7.22412 6.61582L12.9569 13.493C13.2829 13.884 13.8621 13.935 14.2505 13.6069C14.639 13.2788 14.6897 12.6958 14.3637 12.3048L8.6309 5.4276Z" fill="#13B6FE"/>
<path d="M15.2143 24.2051C15.0945 24.3073 14.947 24.3797 14.7811 24.4093L12.5126 24.8118C12.0131 24.9005 11.5369 24.5649 11.4488 24.0621C11.4393 24.0078 11.4348 23.9536 11.4348 23.9004C11.4348 23.4602 11.7481 23.0705 12.1936 22.9913L14.4622 22.5888C14.6051 22.5633 14.7463 22.5727 14.877 22.6111C14.9258 23.1644 15.0409 23.6985 15.2143 24.2051Z" fill="#13B6FE"/>
<path d="M9.63196 23.4457L0.848766 25.0046C0.349354 25.0933 0.0158871 25.5727 0.103947 26.0754C0.192007 26.5781 0.668246 26.9137 1.16766 26.8251L9.95084 25.2662C10.4503 25.1775 10.7838 24.6981 10.6957 24.1954C10.6076 23.6927 10.1314 23.3571 9.63196 23.4457Z" fill="#13B6FE"/>
<path d="M20.2539 29.1343L19.4661 31.3133C19.2927 31.793 18.7658 32.0404 18.2892 31.8658C17.9163 31.7291 17.6848 31.3746 17.6848 30.9972C17.6848 30.8922 17.7027 30.7855 17.7405 30.6811L18.5283 28.5022C18.5777 28.3652 18.6559 28.2472 18.7537 28.1526C19.239 28.3792 19.7555 28.5491 20.2949 28.6541C20.3228 28.8098 20.3116 28.975 20.2539 29.1343Z" fill="#13B6FE"/>
<path d="M16.8508 33.141L13.8005 41.5771C13.627 42.0568 13.8727 42.5871 14.3493 42.7617C14.8258 42.9363 15.3527 42.689 15.5262 42.2093L18.5765 33.7732C18.75 33.2936 18.5043 32.7632 18.0277 32.5886C17.5512 32.414 17.0243 32.6613 16.8508 33.141Z" fill="#13B6FE"/>
<path d="M28.4233 29.8038C28.2512 29.949 28.042 30.0199 27.8336 30.0199C27.5716 30.0199 27.3114 29.9077 27.1298 29.6899L25.649 27.9135C25.5557 27.8016 25.4933 27.6738 25.4609 27.541C25.9036 27.2266 26.307 26.8595 26.6618 26.4491C26.8102 26.5026 26.9471 26.595 27.0557 26.7254L28.5365 28.5015C28.8626 28.8926 28.8118 29.4756 28.4233 29.8038Z" fill="#13B6FE"/>
<path d="M30.209 30.507C29.883 30.1159 29.3039 30.0649 28.9154 30.393C28.5269 30.7212 28.4763 31.3041 28.8022 31.6952L34.5351 38.5724C34.861 38.9634 35.4402 39.0144 35.8287 38.6863C36.2171 38.3582 36.2678 37.7752 35.9418 37.3841L30.209 30.507Z" fill="#13B6FE"/>
<path d="M31.7309 20.0999C31.7309 20.54 31.4176 20.9298 30.9721 21.0089L28.7035 21.4115C28.5606 21.4369 28.4193 21.4276 28.2887 21.3891C28.2399 20.8359 28.1248 20.3018 27.9514 19.7951C28.0712 19.6929 28.2187 19.6205 28.3846 19.591L30.6531 19.1884C31.1526 19.0997 31.6288 19.4353 31.7169 19.9381C31.7264 19.9925 31.7309 20.0466 31.7309 20.0999Z" fill="#13B6FE"/>
<path d="M41.9982 17.1749L33.215 18.7338C32.7156 18.8224 32.3821 19.3018 32.4702 19.8045C32.5583 20.3072 33.0345 20.6429 33.5339 20.5542L42.3171 18.9953C42.8165 18.9067 43.15 18.4273 43.0619 17.9246C42.9739 17.4219 42.4976 17.0862 41.9982 17.1749Z" fill="#13B6FE"/>
<path d="M25.4805 13.003C25.4805 13.108 25.4626 13.2147 25.4248 13.3191L24.637 15.498C24.5876 15.635 24.5094 15.753 24.4116 15.8476C23.9263 15.6211 23.4098 15.4511 22.8703 15.3461C22.8423 15.1904 22.8537 15.0252 22.9114 14.8659L23.6992 12.687C23.8726 12.2072 24.3995 11.9598 24.8761 12.1344C25.249 12.2711 25.4805 12.6254 25.4805 13.003Z" fill="#13B6FE"/>
<path d="M27.6389 1.79053L24.5886 10.2266C24.4151 10.7063 24.6608 11.2367 25.1374 11.4113C25.6139 11.5859 26.1408 11.3385 26.3142 10.8589L29.3646 2.42277C29.5381 1.94309 29.2924 1.4127 28.8158 1.23812C28.3393 1.06353 27.8124 1.31085 27.6389 1.79053Z" fill="#13B6FE"/>
<path d="M22.2428 8.6645V14.8388C22.2428 14.9851 22.209 15.1233 22.149 15.2461C21.9622 15.2303 21.773 15.2222 21.5821 15.2222C21.2245 15.2222 20.8736 15.2503 20.5311 15.3044C20.4518 15.1677 20.4062 15.0085 20.4062 14.8388V8.6645C20.4062 8.15411 20.8174 7.74023 21.3245 7.74023C21.5782 7.74023 21.8076 7.8437 21.9739 8.01108C22.14 8.17824 22.2428 8.40931 22.2428 8.6645Z" fill="#0A74FC"/>
<path d="M22.2428 0.92427C22.2428 0.41381 21.8316 0 21.3245 0C20.8173 0 20.4062 0.41381 20.4062 0.92427V5.99906C20.4062 6.50952 20.8173 6.92333 21.3245 6.92333C21.8316 6.92333 22.2428 6.50952 22.2428 5.99906V0.92427Z" fill="#0A74FC"/>
<path d="M16.0544 18.1287C15.7469 18.5728 15.4908 19.0556 15.2949 19.5683C15.1379 19.569 14.9786 19.5292 14.8328 19.4444L9.52093 16.3573C9.08191 16.1021 8.93139 15.5367 9.18491 15.0948C9.43844 14.6527 10.0001 14.5012 10.4391 14.7564L15.751 17.8435C15.8767 17.9165 15.9786 18.015 16.0544 18.1287Z" fill="#0A74FC"/>
<path d="M3.78006 10.8862C3.34088 10.6309 2.77931 10.7824 2.52575 11.2245C2.2722 11.6665 2.42267 12.2318 2.86184 12.487L7.22795 15.0244C7.66712 15.2797 8.22869 15.1282 8.48225 14.6861C8.73581 14.2441 8.58534 13.6788 8.14616 13.4235L3.78006 10.8862Z" fill="#0A74FC"/>
<path d="M16.3476 26.2632C16.2696 26.4013 16.1554 26.5206 16.009 26.6058L10.6971 29.6927C10.2578 29.9481 9.69641 29.7966 9.44288 29.3545C9.35931 29.2088 9.31958 29.0499 9.31958 28.893C9.31958 28.5737 9.48434 28.2631 9.7789 28.092L15.0908 25.0048C15.2162 24.9318 15.3516 24.8922 15.4868 24.8831C15.7185 25.3789 16.0083 25.842 16.3476 26.2632Z" fill="#0A74FC"/>
<path d="M7.48577 29.4246L3.11967 31.962C2.68049 32.2172 2.53002 32.7825 2.78357 33.2246C3.03713 33.6666 3.5987 33.8181 4.03788 33.5629L8.40398 31.0255C8.84316 30.7703 8.99363 30.205 8.74007 29.7629C8.48651 29.3208 7.92494 29.1694 7.48577 29.4246Z" fill="#0A74FC"/>
<path d="M22.7585 29.1615V35.3357C22.7585 35.8461 22.3473 36.26 21.8403 36.26C21.5865 36.26 21.3572 36.1565 21.1909 35.9892C21.0249 35.822 20.9221 35.5909 20.9221 35.3357V29.1615C20.9221 29.0152 20.9558 28.8769 21.0158 28.7541C21.2026 28.77 21.3918 28.778 21.5827 28.778C21.9403 28.778 22.2912 28.75 22.6337 28.6959C22.7129 28.8326 22.7585 28.9917 22.7585 29.1615Z" fill="#0A74FC"/>
<path d="M22.7585 38.001C22.7585 37.4905 22.3474 37.0767 21.8403 37.0767C21.3332 37.0767 20.9221 37.4905 20.9221 38.001V43.0758C20.9221 43.5862 21.3332 44 21.8403 44C22.3474 44 22.7585 43.5862 22.7585 43.0758V38.001Z" fill="#0A74FC"/>
<path d="M33.9801 28.9054C33.8099 29.2019 33.5013 29.3678 33.1839 29.3678C33.0282 29.3678 32.8703 29.3278 32.7259 29.2438L27.4137 26.1567C27.2881 26.0837 27.1859 25.9852 27.1106 25.8715C27.4181 25.4274 27.6742 24.9446 27.87 24.4319C28.027 24.4312 28.1862 24.471 28.332 24.5558L33.6441 27.6429C34.0831 27.8981 34.2336 28.4635 33.9801 28.9054Z" fill="#0A74FC"/>
<path d="M35.9372 28.9756C35.4981 28.7204 34.9365 28.8718 34.6829 29.3139C34.4294 29.756 34.5799 30.3213 35.019 30.5765L39.3851 33.1139C39.8243 33.3691 40.3859 33.2176 40.6394 32.7756C40.893 32.3335 40.7425 31.7682 40.3033 31.513L35.9372 28.9756Z" fill="#0A74FC"/>
<path d="M33.8456 15.1072C33.8456 15.4265 33.6809 15.7372 33.3863 15.9082L28.0744 18.9954C27.9489 19.0684 27.8135 19.108 27.6784 19.1171C27.4466 18.6213 27.1568 18.1583 26.8176 17.737C26.8955 17.599 27.0098 17.4796 27.1562 17.3944L32.4681 14.3075C32.9073 14.0521 33.4688 14.2036 33.7223 14.6457C33.8059 14.7914 33.8456 14.9503 33.8456 15.1072Z" fill="#0A74FC"/>
<path d="M39.1274 10.4371L34.7613 12.9745C34.3221 13.2297 34.1716 13.795 34.4251 14.2371C34.6787 14.6791 35.2403 14.8306 35.6794 14.5754L40.0455 12.038C40.4847 11.7827 40.6353 11.2175 40.3817 10.7754C40.1282 10.3333 39.5666 10.1819 39.1274 10.4371Z" fill="#0A74FC"/>
<path d="M59.587 15.0429H63.105V28.4228C63.105 30.5972 62.3926 32.2555 60.9689 33.3983C59.5451 34.541 57.827 35.1129 55.817 35.1129C54.3092 35.1129 52.982 34.8223 51.8377 34.2412C50.6923 33.6602 49.8127 32.8081 49.1982 31.6839L52.2707 29.9133C52.9775 31.2241 54.1967 31.8806 55.9284 31.8806C57.0637 31.8806 57.9579 31.5808 58.609 30.9815C59.2612 30.3811 59.5872 29.5288 59.5872 28.4228V26.9051C58.5258 28.3291 57.0362 29.0417 55.1182 29.0417C53.2001 29.0417 51.4922 28.3439 50.1617 26.9475C48.831 25.5522 48.1653 23.8512 48.1653 21.8451C48.1653 19.839 48.8356 18.1632 50.1753 16.7575C51.5161 15.3517 53.1638 14.6494 55.1182 14.6494C57.0725 14.6494 58.5258 15.362 59.5872 16.786L59.587 15.0429ZM52.8704 24.614C53.6055 25.3357 54.5407 25.6961 55.677 25.6961C56.8134 25.6961 57.7473 25.3359 58.4837 24.614C59.2188 23.8934 59.587 22.9692 59.587 21.8449C59.587 20.7206 59.2188 19.8262 58.4837 19.1045C57.7473 18.3839 56.8123 18.0224 55.677 18.0224C54.5418 18.0224 53.6057 18.3839 52.8704 19.1045C52.1353 19.8262 51.7671 20.74 51.7671 21.8449C51.7671 22.9498 52.1353 23.8934 52.8704 24.614Z" fill="black"/>
<path d="M68.0197 23.5606C68.5039 25.322 69.8162 26.2028 71.9569 26.2028C73.334 26.2028 74.3772 25.7339 75.0841 24.797L77.9883 26.483C76.6112 28.4891 74.5818 29.4912 71.9012 29.4912C69.5923 29.4912 67.7401 28.7889 66.3435 27.3831C64.947 25.9774 64.2493 24.2069 64.2493 22.0703C64.2493 19.9338 64.9379 18.1872 66.3161 16.7712C67.6932 15.3574 69.4614 14.6494 71.6215 14.6494C73.6692 14.6494 75.3587 15.362 76.6905 16.786C78.0212 18.21 78.6869 19.9714 78.6869 22.0703C78.6869 22.5392 78.6403 23.0357 78.5472 23.5606H68.0197ZM67.964 20.7491H75.0841C74.8795 19.7929 74.4567 19.0814 73.8136 18.6126C73.1716 18.1448 72.4411 17.9102 71.6217 17.9102C70.6536 17.9102 69.8525 18.1585 69.2208 18.6547C68.5868 19.1512 68.1687 19.849 67.964 20.7491Z" fill="black"/>
<path d="M87.5672 14.6494C89.0933 14.6494 90.3544 15.1652 91.351 16.1958C92.3463 17.2264 92.8452 18.6504 92.8452 20.4678V29.0978H89.2432V20.9174C89.2432 19.9807 88.9909 19.2647 88.4886 18.7671C87.9863 18.2706 87.316 18.0226 86.4786 18.0226C85.5468 18.0226 84.8026 18.3132 84.2446 18.8943C83.6855 19.4753 83.4061 20.347 83.4061 21.5078V29.098H79.804V15.0429H83.4061V16.6166C84.2811 15.3059 85.6683 14.6494 87.5672 14.6494Z" fill="black"/>
<path d="M97.5657 23.5606C98.0499 25.322 99.3622 26.2028 101.503 26.2028C102.88 26.2028 103.923 25.7339 104.63 24.797L107.534 26.483C106.157 28.4891 104.128 29.4912 101.447 29.4912C99.1383 29.4912 97.2861 28.7889 95.8895 27.3831C94.493 25.9774 93.7952 24.2069 93.7952 22.0703C93.7952 19.9338 94.4839 18.1872 95.8621 16.7712C97.2392 15.3574 99.0074 14.6494 101.168 14.6494C103.215 14.6494 104.905 15.362 106.236 16.786C107.567 18.21 108.233 19.9714 108.233 22.0703C108.233 22.5392 108.186 23.0357 108.093 23.5606H97.5657ZM97.51 20.7491H104.63C104.426 19.7929 104.003 19.0814 103.36 18.6126C102.718 18.1448 101.987 17.9102 101.168 17.9102C100.2 17.9102 99.3985 18.1585 98.7668 18.6547C98.1328 19.1512 97.7147 19.849 97.51 20.7491Z" fill="black"/>
<path d="M116.917 18.528H113.761V24.3751C113.761 24.8625 113.882 25.2192 114.124 25.4435C114.366 25.6689 114.719 25.7946 115.185 25.8233C115.65 25.8507 116.227 25.8472 116.917 25.8096V29.098C114.441 29.3793 112.696 29.1449 111.681 28.3957C110.666 27.6453 110.158 26.3061 110.158 24.3753V18.5282H107.729V15.0431H110.158V12.2042L113.761 11.1073V15.0431H116.917V18.528Z" fill="black"/>
<path d="M119.849 13.3558C119.253 13.3558 118.737 13.1363 118.3 12.6959C117.862 12.2555 117.643 11.7351 117.643 11.1358C117.643 10.5365 117.862 10.0116 118.3 9.56205C118.737 9.11144 119.253 8.88733 119.849 8.88733C120.446 8.88733 120.989 9.11144 121.427 9.56205C121.864 10.0116 122.083 10.5365 122.083 11.1358C122.083 11.7351 121.864 12.2555 121.427 12.6959C120.989 13.1363 120.464 13.3558 119.849 13.3558Z" fill="#5498EE"/>
<path d="M121.664 15.0429H118.062V29.0978H121.664V15.0429Z" fill="black"/>
<path d="M143.139 19.259C143.139 21.8073 142.339 24.0171 140.74 25.8896L142.748 28.0022L140.011 30.4476L137.887 28.2126C136.38 29.0658 134.742 29.4914 132.974 29.4914C130.163 29.4914 127.771 28.5032 125.797 26.5256C123.823 24.5492 122.837 22.1266 122.837 19.259C122.837 16.3914 123.823 13.9701 125.797 11.9938C127.771 10.0161 130.163 9.02789 132.974 9.02789C135.785 9.02789 138.183 10.0161 140.165 11.9938C142.147 13.9701 143.139 16.3927 143.139 19.259ZM132.984 25.6963C133.71 25.6963 134.438 25.5809 135.166 25.3498L131.941 21.9586L134.677 19.5131L138.096 23.107C138.889 21.9838 139.285 20.7015 139.285 19.2592C139.285 17.3857 138.681 15.8404 137.471 14.6211C136.26 13.4041 134.762 12.7946 132.974 12.7946C131.187 12.7946 129.688 13.4043 128.478 14.6211C127.268 15.8404 126.663 17.3857 126.663 19.2592C126.663 21.1328 127.269 22.6518 128.481 23.8699C129.693 25.0881 131.194 25.6965 132.985 25.6965L132.984 25.6963Z" fill="black"/>
</svg>
